<svg width="183" height="176" viewBox="0 0 183 176" fill="none" xmlns="http://www.w3.org/2000/svg">
<path d="M0.280789 82.9488C0.340958 78.2008 2.19156 74.135 5.83257 70.7515C9.47274 67.4339 14.6772 64.8946 21.446 63.1336C28.2148 61.3726 36.2465 60.518 45.541 60.5699L45.4282 69.4724C37.1838 69.368 30.6477 70.5053 25.8201 72.8845C20.9916 75.3296 18.5494 78.7613 18.4934 83.1796C18.4407 87.3342 20.7232 90.5949 25.3408 92.9619C29.9576 95.3948 36.3881 96.6635 44.6325 96.7679C51.228 96.8515 57.0091 96.1333 61.9758 94.6133C66.9416 93.1593 70.4173 90.9938 72.4027 88.1169L79.4971 78.4124C83.0074 73.5102 88.827 69.7586 96.9557 67.1574C105.084 64.6222 114.619 63.4239 125.561 63.5626C134.405 63.6746 142.039 64.6288 148.463 66.425C155.036 68.2891 160.101 70.8267 163.659 74.0376C167.366 77.2505 169.193 81.0001 169.138 85.2865C169.058 91.6172 164.947 96.6437 156.804 100.366C148.81 104.09 138.143 105.901 124.801 105.797L124.914 96.8949C133.009 96.9975 139.318 95.9891 143.843 93.87C148.516 91.8186 150.878 88.8475 150.927 84.9568C150.975 81.132 148.915 78.1049 144.745 75.8755C140.575 73.7121 134.742 72.5829 127.247 72.4879C120.502 72.4024 114.646 73.1197 109.679 74.6397C104.713 76.1597 101.161 78.3902 99.0249 81.3311L91.7045 91.1316C88.1958 95.9019 82.3026 99.5537 74.0248 102.087C65.747 104.62 56.0618 105.817 44.9694 105.676C35.9755 105.562 28.1176 104.539 21.3956 102.607C14.6735 100.675 9.46012 98.0041 5.75529 94.5934C2.04963 91.2487 0.224799 87.3672 0.280789 82.9488Z" fill="#864AFC" fill-opacity="0.58"/>
<path d="M85 169C74.8302 169 66.0472 167.122 58.6509 163.367C51.4088 159.611 45.7846 154.203 41.7783 147.143C37.9261 139.932 36 131.444 36 121.68V47.32C36 37.4053 37.9261 28.9178 41.7783 21.8573C45.7846 14.7969 51.4088 9.38888 58.6509 5.63333C66.0472 1.87778 74.8302 0 85 0C95.1698 0 103.876 1.87778 111.118 5.63333C118.514 9.38888 124.138 14.7969 127.991 21.8573C131.997 28.9178 134 37.3302 134 47.0947V121.68C134 131.444 131.997 139.932 127.991 147.143C124.138 154.203 118.514 159.611 111.118 163.367C103.876 167.122 95.1698 169 85 169ZM85 150.748C94.0912 150.748 101.025 148.269 105.802 143.312C110.733 138.204 113.198 130.994 113.198 121.68V47.32C113.198 38.0062 110.733 30.8707 105.802 25.9133C101.025 20.8058 94.0912 18.252 85 18.252C76.0629 18.252 69.1289 20.8058 64.1981 25.9133C59.2673 30.8707 56.8019 38.0062 56.8019 47.32V121.68C56.8019 130.994 59.2673 138.204 64.1981 143.312C69.1289 148.269 76.0629 150.748 85 150.748Z" fill="#8452E8" fill-opacity="0.79"/>
<path d="M98 176C87.8302 176 79.0472 174.122 71.6509 170.367C64.4088 166.611 58.7846 161.203 54.7783 154.143C50.9261 146.932 49 138.444 49 128.68V54.32C49 44.4053 50.9261 35.9178 54.7783 28.8573C58.7846 21.7969 64.4088 16.3889 71.6509 12.6333C79.0472 8.87778 87.8302 7 98 7C108.17 7 116.876 8.87778 124.118 12.6333C131.514 16.3889 137.138 21.7969 140.991 28.8573C144.997 35.9178 147 44.3302 147 54.0947V128.68C147 138.444 144.997 146.932 140.991 154.143C137.138 161.203 131.514 166.611 124.118 170.367C116.876 174.122 108.17 176 98 176ZM98 157.748C107.091 157.748 114.025 155.269 118.802 150.312C123.733 145.204 126.198 137.994 126.198 128.68V54.32C126.198 45.0062 123.733 37.8707 118.802 32.9133C114.025 27.8058 107.091 25.252 98 25.252C89.0629 25.252 82.1289 27.8058 77.1981 32.9133C72.2673 37.8707 69.8019 45.0062 69.8019 54.32V128.68C69.8019 137.994 72.2673 145.204 77.1981 150.312C82.1289 155.269 89.0629 157.748 98 157.748Z" fill="#C5A8FF"/>
<path d="M13.2808 82.9488C13.341 78.2008 15.1916 74.135 18.8326 70.7515C22.4727 67.4339 27.6772 64.8946 34.446 63.1336C41.2148 61.3726 49.2465 60.518 58.541 60.5699L58.4282 69.4724C50.1838 69.368 43.6478 70.5053 38.8201 72.8845C33.9916 75.3296 31.5494 78.7613 31.4934 83.1796C31.4407 87.3342 33.7232 90.5949 38.3408 92.9619C42.9575 95.3948 49.3881 96.6635 57.6325 96.7679C64.228 96.8515 70.0091 96.1333 74.9758 94.6133C79.9416 93.1593 83.4173 90.9938 85.4027 88.1169L92.4971 78.4124C96.0074 73.5102 101.827 69.7586 109.956 67.1574C118.084 64.6222 127.619 63.4239 138.561 63.5626C147.405 63.6746 155.039 64.6288 161.463 66.425C168.036 68.2891 173.101 70.8267 176.659 74.0376C180.366 77.2505 182.193 81.0001 182.138 85.2865C182.058 91.6172 177.947 96.6437 169.804 100.366C161.81 104.09 151.143 105.901 137.801 105.797L137.914 96.8949C146.009 96.9975 152.318 95.9891 156.843 93.87C161.516 91.8186 163.878 88.8475 163.927 84.9568C163.975 81.132 161.915 78.1049 157.745 75.8755C153.575 73.7121 147.742 72.5829 140.247 72.4879C133.502 72.4024 127.646 73.1197 122.679 74.6397C117.713 76.1597 114.161 78.3902 112.025 81.3311L104.704 91.1316C101.196 95.9019 95.3026 99.5537 87.0248 102.087C78.747 104.62 69.0618 105.817 57.9694 105.676C48.9755 105.562 41.1176 104.539 34.3956 102.607C27.6735 100.675 22.4601 98.0041 18.7553 94.5934C15.0496 91.2487 13.2248 87.3671 13.2808 82.9488Z" fill="#C5A8FF"/>
</svg>
