<svg width="303" height="303" viewBox="0 0 303 303" fill="none" xmlns="http://www.w3.org/2000/svg">
<path d="M50.506 192.123C20.4372 188.164 7.69604 152.646 28.9139 130.604C48.0287 110.746 65.647 92.5073 87.9356 65.3066C118.625 27.8532 176.441 26.5324 204.529 65.1817L228.261 97.8368C234.348 106.213 243.64 111.677 253.966 112.952C297.827 118.37 296.817 181.923 252.946 188.482C242.924 189.98 233.796 195.394 227.663 203.52L205.367 233.061C175.945 272.043 117.186 270.645 90.7481 230.335L73.8524 204.574C68.7112 196.735 59.9404 192.057 50.506 192.123Z" fill="#411C5E"/>
<path d="M55.2808 141.949C55.341 137.201 57.1916 133.135 60.8326 129.751C64.4727 126.434 69.6772 123.895 76.446 122.134C83.2148 120.373 91.2465 119.518 100.541 119.57L100.428 128.472C92.1838 128.368 85.6477 129.505 80.8201 131.884C75.9916 134.33 73.5494 137.761 73.4934 142.18C73.4407 146.334 75.7232 149.595 80.3408 151.962C84.9576 154.395 91.3881 155.663 99.6325 155.768C106.228 155.852 112.009 155.133 116.976 153.613C121.942 152.159 125.417 149.994 127.403 147.117L134.497 137.412C138.007 132.51 143.827 128.759 151.956 126.157C160.084 123.622 169.619 122.424 180.561 122.563C189.405 122.675 197.039 123.629 203.463 125.425C210.036 127.289 215.101 129.827 218.659 133.038C222.366 136.25 224.193 140 224.138 144.287C224.058 150.617 219.947 155.644 211.804 159.366C203.81 163.09 193.143 164.901 179.801 164.797L179.914 155.895C188.009 155.997 194.318 154.989 198.843 152.87C203.516 150.819 205.878 147.848 205.927 143.957C205.975 140.132 203.915 137.105 199.745 134.876C195.575 132.712 189.742 131.583 182.247 131.488C175.502 131.402 169.646 132.12 164.679 133.64C159.713 135.16 156.161 137.39 154.025 140.331L146.704 150.132C143.196 154.902 137.303 158.554 129.025 161.087C120.747 163.62 111.062 164.817 99.9694 164.676C90.9755 164.562 83.1176 163.539 76.3956 161.607C69.6735 159.675 64.4601 157.004 60.7553 153.593C57.0496 150.249 55.2248 146.367 55.2808 141.949Z" fill="#864AFC" fill-opacity="0.58"/>
<path d="M140 228C129.83 228 121.047 226.122 113.651 222.367C106.409 218.611 100.785 213.203 96.7783 206.143C92.9261 198.932 91 190.444 91 180.68V106.32C91 96.4053 92.9261 87.9178 96.7783 80.8573C100.785 73.7969 106.409 68.3889 113.651 64.6333C121.047 60.8778 129.83 59 140 59C150.17 59 158.876 60.8778 166.118 64.6333C173.514 68.3889 179.138 73.7969 182.991 80.8573C186.997 87.9178 189 96.3302 189 106.095V180.68C189 190.444 186.997 198.932 182.991 206.143C179.138 213.203 173.514 218.611 166.118 222.367C158.876 226.122 150.17 228 140 228ZM140 209.748C149.091 209.748 156.025 207.269 160.802 202.312C165.733 197.204 168.198 189.994 168.198 180.68V106.32C168.198 97.0062 165.733 89.8707 160.802 84.9133C156.025 79.8058 149.091 77.252 140 77.252C131.063 77.252 124.129 79.8058 119.198 84.9133C114.267 89.8707 111.802 97.0062 111.802 106.32V180.68C111.802 189.994 114.267 197.204 119.198 202.312C124.129 207.269 131.063 209.748 140 209.748Z" fill="#8452E8" fill-opacity="0.79"/>
<path d="M153 235C142.83 235 134.047 233.122 126.651 229.367C119.409 225.611 113.785 220.203 109.778 213.143C105.926 205.932 104 197.444 104 187.68V113.32C104 103.405 105.926 94.9178 109.778 87.8573C113.785 80.7969 119.409 75.3889 126.651 71.6333C134.047 67.8778 142.83 66 153 66C163.17 66 171.876 67.8778 179.118 71.6333C186.514 75.3889 192.138 80.7969 195.991 87.8573C199.997 94.9178 202 103.33 202 113.095V187.68C202 197.444 199.997 205.932 195.991 213.143C192.138 220.203 186.514 225.611 179.118 229.367C171.876 233.122 163.17 235 153 235ZM153 216.748C162.091 216.748 169.025 214.269 173.802 209.312C178.733 204.204 181.198 196.994 181.198 187.68V113.32C181.198 104.006 178.733 96.8707 173.802 91.9133C169.025 86.8058 162.091 84.252 153 84.252C144.063 84.252 137.129 86.8058 132.198 91.9133C127.267 96.8707 124.802 104.006 124.802 113.32V187.68C124.802 196.994 127.267 204.204 132.198 209.312C137.129 214.269 144.063 216.748 153 216.748Z" fill="#C5A8FF"/>
<path d="M68.2808 143.949C68.341 139.201 70.1916 135.135 73.8326 131.751C77.4727 128.434 82.6772 125.895 89.446 124.134C96.2148 122.373 104.246 121.518 113.541 121.57L113.428 130.472C105.184 130.368 98.6478 131.505 93.8201 133.884C88.9916 136.33 86.5494 139.761 86.4934 144.18C86.4407 148.334 88.7232 151.595 93.3408 153.962C97.9575 156.395 104.388 157.663 112.633 157.768C119.228 157.852 125.009 157.133 129.976 155.613C134.942 154.159 138.417 151.994 140.403 149.117L147.497 139.412C151.007 134.51 156.827 130.759 164.956 128.157C173.084 125.622 182.619 124.424 193.561 124.563C202.405 124.675 210.039 125.629 216.463 127.425C223.036 129.289 228.101 131.827 231.659 135.038C235.366 138.25 237.193 142 237.138 146.287C237.058 152.617 232.947 157.644 224.804 161.366C216.81 165.09 206.143 166.901 192.801 166.797L192.914 157.895C201.009 157.997 207.318 156.989 211.843 154.87C216.516 152.819 218.878 149.848 218.927 145.957C218.975 142.132 216.915 139.105 212.745 136.876C208.575 134.712 202.742 133.583 195.247 133.488C188.502 133.402 182.646 134.12 177.679 135.64C172.713 137.16 169.161 139.39 167.025 142.331L159.704 152.132C156.196 156.902 150.303 160.554 142.025 163.087C133.747 165.62 124.062 166.817 112.969 166.676C103.976 166.562 96.1176 165.539 89.3956 163.607C82.6735 161.675 77.4601 159.004 73.7553 155.593C70.0496 152.249 68.2248 148.367 68.2808 143.949Z" fill="#C5A8FF"/>
</svg>
